solid umgebung
facet normal 1.0 0.0 0.0
  outer loop
    vertex -3.0 1.0 0.0
    vertex -3.0 -5.0 1.9999999999999996
    vertex -3.0 -5.0 0.0
  endloop
endfacet
facet normal 1.0 0.0 0.0
  outer loop
    vertex -3.0 -5.0 1.9999999999999996
    vertex -3.0 1.0 0.0
    vertex -3.0 -3.999999999999999 3.0
  endloop
endfacet
facet normal 1.0 0.0 0.0
  outer loop
    vertex -3.0 -3.999999999999999 3.0
    vertex -3.0 1.0 0.0
    vertex -3.0 0.0 3.0
  endloop
endfacet
facet normal 1.0 0.0 0.0
  outer loop
    vertex -3.0 0.0 3.0
    vertex -3.0 1.0 0.0
    vertex -3.0 1.0 1.9999999999999996
  endloop
endfacet
facet normal 0.0 -0.7071067811865475 0.7071067811865477
  outer loop
    vertex -3.0 -5.0 1.9999999999999996
    vertex -5.0 -3.999999999999999 3.0
    vertex -5.0 -5.0 1.9999999999999996
  endloop
endfacet
facet normal 0.0 -0.7071067811865475 0.7071067811865477
  outer loop
    vertex -5.0 -3.999999999999999 3.0
    vertex -3.0 -5.0 1.9999999999999996
    vertex -3.0 -3.999999999999999 3.0
  endloop
endfacet
facet normal 0.0 0.7071067811865477 0.7071067811865474
  outer loop
    vertex -5.0 0.0 3.0
    vertex -3.0 1.0 1.9999999999999996
    vertex -5.0 1.0 1.9999999999999996
  endloop
endfacet
facet normal 0.0 0.7071067811865477 0.7071067811865474
  outer loop
    vertex -3.0 1.0 1.9999999999999996
    vertex -5.0 0.0 3.0
    vertex -3.0 0.0 3.0
  endloop
endfacet
facet normal 0.0 0.0 1.0
  outer loop
    vertex -3.0 -3.999999999999999 3.0
    vertex -5.0 0.0 3.0
    vertex -5.0 -3.999999999999999 3.0
  endloop
endfacet
facet normal 0.0 0.0 1.0
  outer loop
    vertex -5.0 0.0 3.0
    vertex -3.0 -3.999999999999999 3.0
    vertex -3.0 0.0 3.0
  endloop
endfacet
facet normal 0.0 0.0 -1.0
  outer loop
    vertex -3.0 1.0 0.0
    vertex -5.0 -5.0 0.0
    vertex -5.0 1.0 0.0
  endloop
endfacet
facet normal 0.0 0.0 -1.0
  outer loop
    vertex -5.0 -5.0 0.0
    vertex -3.0 1.0 0.0
    vertex -3.0 -5.0 0.0
  endloop
endfacet
facet normal 0.0 -1.0 0.0
  outer loop
    vertex -3.0 -5.0 1.9999999999999996
    vertex -5.0 -5.0 0.0
    vertex -3.0 -5.0 0.0
  endloop
endfacet
facet normal 0.0 -1.0 0.0
  outer loop
    vertex -5.0 -5.0 0.0
    vertex -3.0 -5.0 1.9999999999999996
    vertex -5.0 -5.0 1.9999999999999996
  endloop
endfacet
facet normal 0.0 1.0 0.0
  outer loop
    vertex -5.0 1.0 1.9999999999999996
    vertex -3.0 1.0 0.0
    vertex -5.0 1.0 0.0
  endloop
endfacet
facet normal 0.0 1.0 0.0
  outer loop
    vertex -3.0 1.0 0.0
    vertex -5.0 1.0 1.9999999999999996
    vertex -3.0 1.0 1.9999999999999996
  endloop
endfacet
facet normal -1.0 0.0 0.0
  outer loop
    vertex -5.0 -3.999999999999999 3.0
    vertex -5.0 -5.0 0.0
    vertex -5.0 -5.0 1.9999999999999996
  endloop
endfacet
facet normal -1.0 0.0 0.0
  outer loop
    vertex -5.0 -5.0 0.0
    vertex -5.0 -3.999999999999999 3.0
    vertex -5.0 1.0 0.0
  endloop
endfacet
facet normal -1.0 0.0 0.0
  outer loop
    vertex -5.0 1.0 0.0
    vertex -5.0 -3.999999999999999 3.0
    vertex -5.0 0.0 3.0
  endloop
endfacet
facet normal -1.0 0.0 0.0
  outer loop
    vertex -5.0 1.0 0.0
    vertex -5.0 0.0 3.0
    vertex -5.0 1.0 1.9999999999999996
  endloop
endfacet
endsolid umgebung
