solid umgebung
facet normal 1.0 0.0 0.0
  outer loop
    vertex 5.999999999999998 6.0 -0.5
    vertex 5.999999999999998 -6.0 0.0
    vertex 5.999999999999998 -6.0 -0.5
  endloop
endfacet
facet normal 1.0 0.0 0.0
  outer loop
    vertex 5.999999999999998 -6.0 0.0
    vertex 5.999999999999998 6.0 -0.5
    vertex 5.999999999999998 6.0 0.0
  endloop
endfacet
facet normal 0.0 0.0 -1.0
  outer loop
    vertex 5.999999999999998 6.0 -0.5
    vertex -6.000000000000002 -6.0 -0.5
    vertex -6.000000000000002 6.0 -0.5
  endloop
endfacet
facet normal 0.0 0.0 -1.0
  outer loop
    vertex -6.000000000000002 -6.0 -0.5
    vertex 5.999999999999998 6.0 -0.5
    vertex 5.999999999999998 -6.0 -0.5
  endloop
endfacet
facet normal -1.0 0.0 0.0
  outer loop
    vertex -6.000000000000002 6.0 0.0
    vertex -6.000000000000002 -6.0 -0.5
    vertex -6.000000000000002 -6.0 0.0
  endloop
endfacet
facet normal -1.0 0.0 0.0
  outer loop
    vertex -6.000000000000002 -6.0 -0.5
    vertex -6.000000000000002 6.0 0.0
    vertex -6.000000000000002 6.0 -0.5
  endloop
endfacet
facet normal 0.0 1.0 0.0
  outer loop
    vertex -6.000000000000002 6.0 0.0
    vertex 5.999999999999998 6.0 -0.5
    vertex -6.000000000000002 6.0 -0.5
  endloop
endfacet
facet normal 0.0 1.0 0.0
  outer loop
    vertex 5.999999999999998 6.0 -0.5
    vertex -6.000000000000002 6.0 0.0
    vertex 5.999999999999998 6.0 0.0
  endloop
endfacet
facet normal -0.0 -1.0 -0.0
  outer loop
    vertex 5.999999999999998 -6.0 0.0
    vertex -6.000000000000002 -6.0 -0.5
    vertex 5.999999999999998 -6.0 -0.5
  endloop
endfacet
facet normal -0.0 -1.0 -0.0
  outer loop
    vertex -6.000000000000002 -6.0 -0.5
    vertex 5.999999999999998 -6.0 0.0
    vertex -6.000000000000002 -6.0 0.0
  endloop
endfacet
facet normal 0.0 0.0 1.0
  outer loop
    vertex 5.999999999999998 -6.0 0.0
    vertex -6.000000000000002 6.0 0.0
    vertex -6.000000000000002 -6.0 0.0
  endloop
endfacet
facet normal 0.0 0.0 1.0
  outer loop
    vertex -6.000000000000002 6.0 0.0
    vertex 5.999999999999998 -6.0 0.0
    vertex 5.999999999999998 6.0 0.0
  endloop
endfacet
endsolid umgebung
