solid umgebung
facet normal 1.0 -7.219114195322617e-17 2.532549857661231e-17
  outer loop
    vertex 1.4999999999999996 0.6 5.0
    vertex 1.4999999999999996 -1.9 5.500000000000001
    vertex 1.4999999999999996 -1.9 5.000000000000001
  endloop
endfacet
facet normal 1.0 -7.219114195322617e-17 2.532549857661231e-17
  outer loop
    vertex 1.4999999999999996 -1.9 5.500000000000001
    vertex 1.4999999999999996 0.6 5.0
    vertex 1.4999999999999996 0.6 5.5
  endloop
endfacet
facet normal 2.5325498576612287e-17 -2.637623734734407e-16 -1.0
  outer loop
    vertex 1.4999999999999996 0.6 5.0
    vertex -5.5 -0.4 5.0
    vertex -5.5 0.6 5.0
  endloop
endfacet
facet normal 2.5325498576612287e-17 -2.637623734734407e-16 -1.0
  outer loop
    vertex -5.5 -0.4 5.0
    vertex 1.4999999999999996 0.6 5.0
    vertex 0.5000000000000003 -1.9 5.000000000000001
  endloop
endfacet
facet normal 2.5325498576612287e-17 -2.637623734734407e-16 -1.0
  outer loop
    vertex 0.5000000000000003 -1.9 5.000000000000001
    vertex 1.4999999999999996 0.6 5.0
    vertex 1.4999999999999996 -1.9 5.000000000000001
  endloop
endfacet
facet normal -2.5325498576612287e-17 2.637623734734407e-16 1.0
  outer loop
    vertex 0.5000000000000003 -1.9 5.500000000000001
    vertex -5.5 0.6 5.5
    vertex -5.5 -0.3999999999999998 5.5
  endloop
endfacet
facet normal -2.5325498576612287e-17 2.637623734734407e-16 1.0
  outer loop
    vertex -5.5 0.6 5.5
    vertex 0.5000000000000003 -1.9 5.500000000000001
    vertex 1.4999999999999996 0.6 5.5
  endloop
endfacet
facet normal -2.5325498576612287e-17 2.637623734734407e-16 1.0
  outer loop
    vertex 1.4999999999999996 0.6 5.5
    vertex 0.5000000000000003 -1.9 5.500000000000001
    vertex 1.4999999999999996 -1.9 5.500000000000001
  endloop
endfacet
facet normal 0.0 -1.0 2.6376237347344074e-16
  outer loop
    vertex 1.4999999999999996 -1.9 5.500000000000001
    vertex 0.5000000000000003 -1.9 5.000000000000001
    vertex 1.4999999999999996 -1.9 5.000000000000001
  endloop
endfacet
facet normal 0.0 -1.0 2.6376237347344074e-16
  outer loop
    vertex 0.5000000000000003 -1.9 5.000000000000001
    vertex 1.4999999999999996 -1.9 5.500000000000001
    vertex 0.5000000000000003 -1.9 5.500000000000001
  endloop
endfacet
facet normal 0.0 1.0 -2.637623734734407e-16
  outer loop
    vertex -5.5 0.6 5.5
    vertex 1.4999999999999996 0.6 5.0
    vertex -5.5 0.6 5.0
  endloop
endfacet
facet normal 0.0 1.0 -2.637623734734407e-16
  outer loop
    vertex 1.4999999999999996 0.6 5.0
    vertex -5.5 0.6 5.5
    vertex 1.4999999999999996 0.6 5.5
  endloop
endfacet
facet normal -1.0 -0.0 -2.5325498576612287e-17
  outer loop
    vertex -5.5 -0.3999999999999998 5.5
    vertex -5.5 0.6 5.0
    vertex -5.5 -0.4 5.0
  endloop
endfacet
facet normal -1.0 -0.0 -2.5325498576612287e-17
  outer loop
    vertex -5.5 0.6 5.0
    vertex -5.5 -0.3999999999999998 5.5
    vertex -5.5 0.6 5.5
  endloop
endfacet
facet normal -0.242535625036333 -0.970142500145332 2.497447528191551e-16
  outer loop
    vertex 0.5000000000000003 -1.9 5.000000000000001
    vertex -5.5 -0.3999999999999998 5.5
    vertex -5.5 -0.4 5.0
  endloop
endfacet
facet normal -0.242535625036333 -0.970142500145332 2.497447528191551e-16
  outer loop
    vertex -5.5 -0.3999999999999998 5.5
    vertex 0.5000000000000003 -1.9 5.000000000000001
    vertex 0.5000000000000003 -1.9 5.500000000000001
  endloop
endfacet
endsolid umgebung
