solid umgebung
facet normal 0.8802308146028962 0.0 0.47454579655026125
  outer loop
    vertex 5.801857114575361 2.5790657383921114 1.58
    vertex 5.48917030853197 0.6691749183629894 2.16
    vertex 5.801857114575361 0.4390657383921116 1.58
  endloop
endfacet
facet normal 0.8802308146028962 0.0 0.47454579655026125
  outer loop
    vertex 5.48917030853197 0.6691749183629894 2.16
    vertex 5.801857114575361 2.5790657383921114 1.58
    vertex 5.48917030853197 2.345915867686069 2.16
  endloop
endfacet
facet normal 0.12314498839743077 0.41358035911579216 0.9021012129391298
  outer loop
    vertex 3.6694654147771533 2.342439481114735 2.4099999999999997
    vertex 5.48917030853197 2.345915867686069 2.16
    vertex 3.2646498347142456 3.008274565095669 2.16
  endloop
endfacet
facet normal 0.12314498839743077 0.41358035911579216 0.9021012129391298
  outer loop
    vertex 5.48917030853197 2.345915867686069 2.16
    vertex 3.6694654147771533 2.342439481114735 2.4099999999999997
    vertex 4.966545756079128 1.956229304399242 2.4099999999999997
  endloop
endfacet
facet normal 0.2511931796792677 0.8436280421246664 0.47454579655026075
  outer loop
    vertex 3.2646498347142456 3.008274565095669 2.16
    vertex 5.801857114575361 2.5790657383921114 1.58
    vertex 3.022448257745865 3.4066443791131933 1.58
  endloop
endfacet
facet normal 0.2511931796792677 0.8436280421246664 0.47454579655026075
  outer loop
    vertex 5.801857114575361 2.5790657383921114 1.58
    vertex 3.2646498347142456 3.008274565095669 2.16
    vertex 5.48917030853197 2.345915867686069 2.16
  endloop
endfacet
facet normal 0.26176722654394996 -0.8404071668447188 0.47454579655026086
  outer loop
    vertex 5.48917030853197 0.6691749183629894 2.16
    vertex 4.392397187873868 5.185263159284616e-05 1.58
    vertex 5.801857114575361 0.4390657383921116 1.58
  endloop
endfacet
facet normal 0.26176722654394996 -0.8404071668447188 0.47454579655026086
  outer loop
    vertex 4.392397187873868 5.185263159284616e-05 1.58
    vertex 5.48917030853197 0.6691749183629894 2.16
    vertex 4.035555330009759 -0.11109606129991441 1.58
  endloop
endfacet
facet normal 0.26176722654394996 -0.8404071668447188 0.47454579655026086
  outer loop
    vertex 4.035555330009759 -0.11109606129991441 1.58
    vertex 5.48917030853197 0.6691749183629894 2.16
    vertex 4.103935383666017 0.2377065555271732 2.16
  endloop
endfacet
facet normal 0.26176722654394996 -0.8404071668447188 0.47454579655026086
  outer loop
    vertex 4.103935383666017 0.2377065555271732 2.16
    vertex 5.48917030853197 0.6691749183629894 2.16
    vertex 4.700360664996219 0.42347911660690174 2.16
  endloop
endfacet
facet normal 0.2853719450762354 0.9584168471825849 0.0
  outer loop
    vertex 3.022448257745865 3.4066443791131933 1.58
    vertex 5.801857114575361 2.5790657383921114 0.0
    vertex 3.022448257745865 3.4066443791131933 0.0
  endloop
endfacet
facet normal 0.2853719450762354 0.9584168471825849 0.0
  outer loop
    vertex 5.801857114575361 2.5790657383921114 0.0
    vertex 3.022448257745865 3.4066443791131933 1.58
    vertex 5.801857114575361 2.5790657383921114 1.58
  endloop
endfacet
facet normal 0.4315245087057641 0.0 0.9021012129391296
  outer loop
    vertex 5.48917030853197 0.6691749183629894 2.16
    vertex 4.966545756079128 1.956229304399242 2.4099999999999997
    vertex 4.966545756079128 1.0537792728584667 2.4099999999999997
  endloop
endfacet
facet normal 0.4315245087057641 0.0 0.9021012129391296
  outer loop
    vertex 4.966545756079128 1.956229304399242 2.4099999999999997
    vertex 5.48917030853197 0.6691749183629894 2.16
    vertex 5.48917030853197 2.345915867686069 2.16
  endloop
endfacet
facet normal 0.0 0.0 1.0
  outer loop
    vertex 4.218225767040378 0.8206950538917034 2.4099999999999997
    vertex 3.6694654147771533 2.342439481114735 2.4099999999999997
    vertex 3.4928267688127743 1.4183287124550892 2.4099999999999997
  endloop
endfacet
facet normal 0.0 0.0 1.0
  outer loop
    vertex 3.6694654147771533 2.342439481114735 2.4099999999999997
    vertex 4.218225767040378 0.8206950538917034 2.4099999999999997
    vertex 4.966545756079128 1.956229304399242 2.4099999999999997
  endloop
endfacet
facet normal 0.0 0.0 1.0
  outer loop
    vertex 4.966545756079128 1.956229304399242 2.4099999999999997
    vertex 4.218225767040378 0.8206950538917034 2.4099999999999997
    vertex 4.544940089676924 0.92245894344758 2.4099999999999997
  endloop
endfacet
facet normal 0.0 0.0 1.0
  outer loop
    vertex 4.966545756079128 1.956229304399242 2.4099999999999997
    vertex 4.544940089676924 0.92245894344758 2.4099999999999997
    vertex 4.966545756079128 1.0537792728584667 2.4099999999999997
  endloop
endfacet
facet normal -0.5597065230611394 -0.679363595594648 0.4745457965502612
  outer loop
    vertex 4.103935383666017 0.2377065555271732 2.16
    vertex 2.5793689571174503 1.0886105714747818 1.58
    vertex 4.035555330009759 -0.11109606129991441 1.58
  endloop
endfacet
facet normal -0.5597065230611394 -0.679363595594648 0.4745457965502612
  outer loop
    vertex 2.5793689571174503 1.0886105714747818 1.58
    vertex 4.103935383666017 0.2377065555271732 2.16
    vertex 2.9213087651772778 1.212035820454156 2.16
  endloop
endfacet
facet normal -0.8645782994807686 0.1652593447990811 0.4745457965502604
  outer loop
    vertex 2.9213087651772778 1.212035820454156 2.16
    vertex 3.022448257745865 3.4066443791131933 1.58
    vertex 2.5793689571174503 1.0886105714747818 1.58
  endloop
endfacet
facet normal -0.8645782994807686 0.1652593447990811 0.4745457965502604
  outer loop
    vertex 3.022448257745865 3.4066443791131933 1.58
    vertex 2.9213087651772778 1.212035820454156 2.16
    vertex 3.2646498347142456 3.008274565095669 2.16
  endloop
endfacet
facet normal -0.42385101695106636 0.08101677013617371 0.9021012129391299
  outer loop
    vertex 3.4928267688127743 1.4183287124550892 2.4099999999999997
    vertex 3.2646498347142456 3.008274565095669 2.16
    vertex 2.9213087651772778 1.212035820454156 2.16
  endloop
endfacet
facet normal -0.42385101695106636 0.08101677013617371 0.9021012129391299
  outer loop
    vertex 3.2646498347142456 3.008274565095669 2.16
    vertex 3.4928267688127743 1.4183287124550892 2.4099999999999997
    vertex 3.6694654147771533 2.342439481114735 2.4099999999999997
  endloop
endfacet
facet normal 0.1283288109842054 -0.4120013566544785 0.9021012129391298
  outer loop
    vertex 4.700360664996219 0.42347911660690174 2.16
    vertex 4.218225767040378 0.8206950538917034 2.4099999999999997
    vertex 4.103935383666017 0.2377065555271732 2.16
  endloop
endfacet
facet normal 0.1283288109842054 -0.4120013566544785 0.9021012129391298
  outer loop
    vertex 4.218225767040378 0.8206950538917034 2.4099999999999997
    vertex 4.700360664996219 0.42347911660690174 2.16
    vertex 4.544940089676924 0.92245894344758 2.4099999999999997
  endloop
endfacet
facet normal 0.1283288109842054 -0.4120013566544785 0.9021012129391298
  outer loop
    vertex 4.544940089676924 0.92245894344758 2.4099999999999997
    vertex 4.700360664996219 0.42347911660690174 2.16
    vertex 4.966545756079128 1.0537792728584667 2.4099999999999997
  endloop
endfacet
facet normal 0.1283288109842054 -0.4120013566544785 0.9021012129391298
  outer loop
    vertex 4.966545756079128 1.0537792728584667 2.4099999999999997
    vertex 4.700360664996219 0.42347911660690174 2.16
    vertex 5.48917030853197 0.6691749183629894 2.16
  endloop
endfacet
facet normal -0.2743906238869072 -0.33305132808127974 0.9021012129391301
  outer loop
    vertex 4.103935383666017 0.2377065555271732 2.16
    vertex 3.4928267688127743 1.4183287124550892 2.4099999999999997
    vertex 2.9213087651772778 1.212035820454156 2.16
  endloop
endfacet
facet normal -0.2743906238869072 -0.33305132808127974 0.9021012129391301
  outer loop
    vertex 3.4928267688127743 1.4183287124550892 2.4099999999999997
    vertex 4.103935383666017 0.2377065555271732 2.16
    vertex 4.218225767040378 0.8206950538917034 2.4099999999999997
  endloop
endfacet
facet normal -0.6358633596730457 -0.771801650571769 0.0
  outer loop
    vertex 4.035555330009759 -0.11109606129991441 1.58
    vertex 2.5793689571174503 1.0886105714747818 0.0
    vertex 4.035555330009759 -0.11109606129991441 0.0
  endloop
endfacet
facet normal -0.6358633596730457 -0.771801650571769 0.0
  outer loop
    vertex 2.5793689571174503 1.0886105714747818 0.0
    vertex 4.035555330009759 -0.11109606129991441 1.58
    vertex 2.5793689571174503 1.0886105714747818 1.58
  endloop
endfacet
facet normal -0.9822177151010221 0.18774546636797237 0.0
  outer loop
    vertex 3.022448257745865 3.4066443791131933 1.58
    vertex 2.5793689571174503 1.0886105714747818 0.0
    vertex 2.5793689571174503 1.0886105714747818 1.58
  endloop
endfacet
facet normal -0.9822177151010221 0.18774546636797237 0.0
  outer loop
    vertex 2.5793689571174503 1.0886105714747818 0.0
    vertex 3.022448257745865 3.4066443791131933 1.58
    vertex 3.022448257745865 3.4066443791131933 0.0
  endloop
endfacet
facet normal 1.0 0.0 0.0
  outer loop
    vertex 5.801857114575361 2.5790657383921114 0.0
    vertex 5.801857114575361 0.4390657383921116 1.58
    vertex 5.801857114575361 0.4390657383921116 0.0
  endloop
endfacet
facet normal 1.0 0.0 0.0
  outer loop
    vertex 5.801857114575361 0.4390657383921116 1.58
    vertex 5.801857114575361 2.5790657383921114 0.0
    vertex 5.801857114575361 2.5790657383921114 1.58
  endloop
endfacet
facet normal 0.29738475659028435 -0.9547577213868121 1.2138488997260574e-16
  outer loop
    vertex 5.801857114575361 0.4390657383921116 1.58
    vertex 4.035555330009759 -0.11109606129991441 0.0
    vertex 5.801857114575361 0.4390657383921116 0.0
  endloop
endfacet
facet normal 0.29738475659028435 -0.9547577213868121 1.2138488997260574e-16
  outer loop
    vertex 4.035555330009759 -0.11109606129991441 0.0
    vertex 5.801857114575361 0.4390657383921116 1.58
    vertex 4.035555330009759 -0.11109606129991441 1.58
  endloop
endfacet
facet normal 0.29738475659028435 -0.9547577213868121 1.2138488997260574e-16
  outer loop
    vertex 4.035555330009759 -0.11109606129991441 1.58
    vertex 5.801857114575361 0.4390657383921116 1.58
    vertex 4.392397187873868 5.185263159284616e-05 1.58
  endloop
endfacet
facet normal 0.0 0.0 -1.0
  outer loop
    vertex 3.022448257745865 3.4066443791131933 0.0
    vertex 4.035555330009759 -0.11109606129991441 0.0
    vertex 2.5793689571174503 1.0886105714747818 0.0
  endloop
endfacet
facet normal 0.0 0.0 -1.0
  outer loop
    vertex 4.035555330009759 -0.11109606129991441 0.0
    vertex 3.022448257745865 3.4066443791131933 0.0
    vertex 5.801857114575361 2.5790657383921114 0.0
  endloop
endfacet
facet normal 0.0 0.0 -1.0
  outer loop
    vertex 4.035555330009759 -0.11109606129991441 0.0
    vertex 5.801857114575361 2.5790657383921114 0.0
    vertex 5.801857114575361 0.4390657383921116 0.0
  endloop
endfacet
endsolid umgebung
