solid umgebung
facet normal 0.7071067811865476 0.0 0.7071067811865476
  outer loop
    vertex 1.0 4.7 3.0
    vertex 0.0 3.7 4.0
    vertex 1.0 3.7 3.0
  endloop
endfacet
facet normal -1.0279009476701169e-16 0.7071067811865476 0.7071067811865476
  outer loop
    vertex 0.0 3.7 4.0
    vertex 1.0 4.7 3.0
    vertex 0.0 4.7 3.0
  endloop
endfacet
facet normal -0.9428090415820635 0.23570226039551587 0.23570226039551592
  outer loop
    vertex 0.0 4.7 3.0
    vertex -1.0 3.7 0.0
    vertex 0.0 3.7 4.0
  endloop
endfacet
facet normal -0.7071067811865476 0.7071067811865476 0.0
  outer loop
    vertex 0.0 4.7 0.0
    vertex -1.0 3.7 0.0
    vertex 0.0 4.7 3.0
  endloop
endfacet
facet normal 0.0 -1.0 0.0
  outer loop
    vertex 1.0 3.7 3.0
    vertex -1.0 3.7 0.0
    vertex 1.0 3.7 0.0
  endloop
endfacet
facet normal 0.0 -1.0 0.0
  outer loop
    vertex -1.0 3.7 0.0
    vertex 1.0 3.7 3.0
    vertex 0.0 3.7 4.0
  endloop
endfacet
facet normal 0.0 1.0 0.0
  outer loop
    vertex 0.0 4.7 3.0
    vertex 1.0 4.7 0.0
    vertex 0.0 4.7 0.0
  endloop
endfacet
facet normal 0.0 1.0 0.0
  outer loop
    vertex 1.0 4.7 0.0
    vertex 0.0 4.7 3.0
    vertex 1.0 4.7 3.0
  endloop
endfacet
facet normal 0.0 0.0 -1.0
  outer loop
    vertex 0.0 4.7 0.0
    vertex 1.0 3.7 0.0
    vertex -1.0 3.7 0.0
  endloop
endfacet
facet normal 0.0 0.0 -1.0
  outer loop
    vertex 1.0 3.7 0.0
    vertex 0.0 4.7 0.0
    vertex 1.0 4.7 0.0
  endloop
endfacet
facet normal 1.0 0.0 0.0
  outer loop
    vertex 1.0 4.7 0.0
    vertex 1.0 3.7 3.0
    vertex 1.0 3.7 0.0
  endloop
endfacet
facet normal 1.0 0.0 0.0
  outer loop
    vertex 1.0 3.7 3.0
    vertex 1.0 4.7 0.0
    vertex 1.0 4.7 3.0
  endloop
endfacet
endsolid umgebung
