solid umgebung
facet normal 5.0912439050013456e-17 1.0 2.9401483268222996e-15
  outer loop
    vertex 3.9353115494114843 5.999999999999999 2.535
    vertex 4.966545756079128 6.0 2.4099999999999997
    vertex 3.9353115494114843 6.0 2.4099999999999997
  endloop
endfacet
facet normal 5.0912439050013456e-17 1.0 2.9401483268222996e-15
  outer loop
    vertex 4.966545756079128 6.0 2.4099999999999997
    vertex 3.9353115494114843 5.999999999999999 2.535
    vertex 4.966545756079128 5.999999999999999 2.535
  endloop
endfacet
facet normal 5.0912439050013456e-17 1.0 2.9401483268222996e-15
  outer loop
    vertex 4.966545756079128 5.999999999999999 2.535
    vertex 3.9353115494114843 5.999999999999999 2.535
    vertex 4.450928652745306 5.999999999999999 2.66
  endloop
endfacet
facet normal -1.0 0.0 0.0
  outer loop
    vertex 3.9353115494114843 5.999999999999999 2.535
    vertex 3.9353115494114843 1.0537792728584667 2.4099999999999997
    vertex 3.9353115494114843 1.0537792728584667 2.535
  endloop
endfacet
facet normal -1.0 0.0 0.0
  outer loop
    vertex 3.9353115494114843 1.0537792728584667 2.4099999999999997
    vertex 3.9353115494114843 5.999999999999999 2.535
    vertex 3.9353115494114843 6.0 2.4099999999999997
  endloop
endfacet
facet normal -0.05781349949838618 -0.1856110100576695 0.9809210733902711
  outer loop
    vertex 4.450928652745306 1.5537792728584667 2.66
    vertex 3.9353115494114843 1.0537792728584667 2.535
    vertex 4.450928652745306 0.8931765740439549 2.535
  endloop
endfacet
facet normal 1.0 0.0 0.0
  outer loop
    vertex 4.966545756079128 6.0 2.4099999999999997
    vertex 4.966545756079128 1.0537792728584667 2.535
    vertex 4.966545756079128 1.0537792728584667 2.4099999999999997
  endloop
endfacet
facet normal 1.0 0.0 0.0
  outer loop
    vertex 4.966545756079128 1.0537792728584667 2.535
    vertex 4.966545756079128 6.0 2.4099999999999997
    vertex 4.966545756079128 5.999999999999999 2.535
  endloop
endfacet
facet normal 0.2356034335448403 1.501635631738575e-18 0.9718492795191455
  outer loop
    vertex 4.966545756079128 1.0537792728584667 2.535
    vertex 4.450928652745306 5.999999999999999 2.66
    vertex 4.450928652745306 1.5537792728584667 2.66
  endloop
endfacet
facet normal 0.2356034335448403 1.501635631738575e-18 0.9718492795191455
  outer loop
    vertex 4.450928652745306 5.999999999999999 2.66
    vertex 4.966545756079128 1.0537792728584667 2.535
    vertex 4.966545756079128 5.999999999999999 2.535
  endloop
endfacet
facet normal -0.23560343354484062 1.2513630264488159e-18 0.9718492795191455
  outer loop
    vertex 4.450928652745306 1.5537792728584667 2.66
    vertex 3.9353115494114843 5.999999999999999 2.535
    vertex 3.9353115494114843 1.0537792728584667 2.535
  endloop
endfacet
facet normal -0.23560343354484062 1.2513630264488159e-18 0.9718492795191455
  outer loop
    vertex 3.9353115494114843 5.999999999999999 2.535
    vertex 4.450928652745306 1.5537792728584667 2.66
    vertex 4.450928652745306 5.999999999999999 2.66
  endloop
endfacet
facet normal 0.05781349949838605 -0.1856110100576695 0.9809210733902711
  outer loop
    vertex 4.966545756079128 1.0537792728584667 2.535
    vertex 4.450928652745306 1.5537792728584667 2.66
    vertex 4.450928652745306 0.8931765740439549 2.535
  endloop
endfacet
facet normal 0.2973847565902835 -0.9547577213868124 -1.305103104701498e-16
  outer loop
    vertex 4.966545756079128 1.0537792728584667 2.535
    vertex 4.450928652745306 0.8931765740439549 2.4099999999999997
    vertex 4.966545756079128 1.0537792728584667 2.4099999999999997
  endloop
endfacet
facet normal 0.2973847565902834 -0.9547577213868124 1.305103104701498e-16
  outer loop
    vertex 4.450928652745306 0.8931765740439549 2.535
    vertex 4.450928652745306 0.8931765740439549 2.4099999999999997
    vertex 4.966545756079128 1.0537792728584667 2.535
  endloop
endfacet
facet normal -0.2973847565902838 -0.9547577213868121 -1.3051031047015015e-16
  outer loop
    vertex 3.9353115494114843 1.0537792728584667 2.535
    vertex 4.450928652745306 0.8931765740439549 2.4099999999999997
    vertex 4.450928652745306 0.8931765740439549 2.535
  endloop
endfacet
facet normal -0.29738475659028374 -0.9547577213868121 0.0
  outer loop
    vertex 3.9353115494114843 1.0537792728584667 2.535
    vertex 3.9353115494114843 1.0537792728584667 2.4099999999999997
    vertex 4.450928652745306 0.8931765740439549 2.4099999999999997
  endloop
endfacet
facet normal 0.0 0.0 -1.0
  outer loop
    vertex 4.966545756079128 6.0 2.4099999999999997
    vertex 3.9353115494114843 1.0537792728584667 2.4099999999999997
    vertex 3.9353115494114843 6.0 2.4099999999999997
  endloop
endfacet
facet normal 0.0 0.0 -1.0
  outer loop
    vertex 3.9353115494114843 1.0537792728584667 2.4099999999999997
    vertex 4.966545756079128 6.0 2.4099999999999997
    vertex 4.450928652745306 0.8931765740439549 2.4099999999999997
  endloop
endfacet
facet normal 0.0 0.0 -1.0
  outer loop
    vertex 4.450928652745306 0.8931765740439549 2.4099999999999997
    vertex 4.966545756079128 6.0 2.4099999999999997
    vertex 4.966545756079128 1.0537792728584667 2.4099999999999997
  endloop
endfacet
endsolid umgebung
