solid testobj
facet normal -0.7071067811865479 -0.0 -0.7071067811865472
  outer loop
    vertex 0.0 1.0000000000000004 0.24999999999999994
    vertex 0.24999999999999978 0.25000000000000056 0.0
    vertex 0.0 5.414335646491963e-16 0.24999999999999994
  endloop
endfacet
facet normal -0.7071067811865479 -0.0 -0.7071067811865472
  outer loop
    vertex 0.24999999999999978 0.25000000000000056 0.0
    vertex 0.0 1.0000000000000004 0.24999999999999994
    vertex 0.24999999999999978 0.750000000000001 0.0
  endloop
endfacet
facet normal -0.7071067811865481 0.0 0.7071067811865468
  outer loop
    vertex 0.24999999999999956 0.24999999999999986 1.0
    vertex 0.0 1.0000000000000004 0.75
    vertex 0.0 5.414335646491963e-16 0.75
  endloop
endfacet
facet normal -0.7071067811865481 0.0 0.7071067811865468
  outer loop
    vertex 0.0 1.0000000000000004 0.75
    vertex 0.24999999999999956 0.24999999999999986 1.0
    vertex 0.24999999999999956 0.7500000000000007 1.0
  endloop
endfacet
facet normal 0.0 0.7071067811865479 0.7071067811865472
  outer loop
    vertex 0.24999999999999956 0.7500000000000007 1.0
    vertex 1.0 1.0000000000000004 0.75
    vertex 0.0 1.0000000000000004 0.75
  endloop
endfacet
facet normal 0.0 0.7071067811865479 0.7071067811865472
  outer loop
    vertex 1.0 1.0000000000000004 0.75
    vertex 0.24999999999999956 0.7500000000000007 1.0
    vertex 0.75 0.7500000000000007 1.0
  endloop
endfacet
facet normal 0.0 0.0 1.0
  outer loop
    vertex 1.0 5.414335646491963e-16 0.75
    vertex 0.0 1.0000000000000004 0.75
    vertex 0.0 5.414335646491963e-16 0.75
  endloop
endfacet
facet normal 0.0 0.0 1.0
  outer loop
    vertex 0.0 1.0000000000000004 0.75
    vertex 1.0 5.414335646491963e-16 0.75
    vertex 1.0 1.0000000000000004 0.75
  endloop
endfacet
facet normal 6.535218224017575e-18 -0.7071067811865485 0.7071067811865467
  outer loop
    vertex 0.75 0.24999999999999986 1.0
    vertex 0.0 5.414335646491963e-16 0.75
    vertex 1.0 5.414335646491963e-16 0.75
  endloop
endfacet
facet normal 6.535218224017575e-18 -0.7071067811865485 0.7071067811865467
  outer loop
    vertex 0.0 5.414335646491963e-16 0.75
    vertex 0.75 0.24999999999999986 1.0
    vertex 0.24999999999999956 0.24999999999999986 1.0
  endloop
endfacet
facet normal 0.7071067811865481 -1.0037961120255512e-16 -0.7071067811865468
  outer loop
    vertex 0.75 0.25000000000000056 0.0
    vertex 1.0 1.0000000000000004 0.24999999999999994
    vertex 1.0 5.414335646491963e-16 0.24999999999999994
  endloop
endfacet
facet normal 0.7071067811865481 -1.0037961120255512e-16 -0.7071067811865468
  outer loop
    vertex 1.0 1.0000000000000004 0.24999999999999994
    vertex 0.75 0.25000000000000056 0.0
    vertex 0.7500000000000007 0.750000000000001 0.0
  endloop
endfacet
facet normal 0.7071067811865476 0.0 0.7071067811865476
  outer loop
    vertex 1.0 1.0000000000000004 0.75
    vertex 0.75 0.24999999999999986 1.0
    vertex 1.0 5.414335646491963e-16 0.75
  endloop
endfacet
facet normal 0.7071067811865476 0.0 0.7071067811865476
  outer loop
    vertex 0.75 0.24999999999999986 1.0
    vertex 1.0 1.0000000000000004 0.75
    vertex 0.75 0.7500000000000007 1.0
  endloop
endfacet
facet normal 0.0 0.7071067811865481 -0.707106781186547
  outer loop
    vertex 0.0 1.0000000000000004 0.24999999999999994
    vertex 0.7500000000000007 0.750000000000001 0.0
    vertex 0.24999999999999978 0.750000000000001 0.0
  endloop
endfacet
facet normal 0.0 0.7071067811865481 -0.707106781186547
  outer loop
    vertex 0.7500000000000007 0.750000000000001 0.0
    vertex 0.0 1.0000000000000004 0.24999999999999994
    vertex 1.0 1.0000000000000004 0.24999999999999994
  endloop
endfacet
facet normal 0.0 0.0 1.0
  outer loop
    vertex 0.75 0.24999999999999986 1.0
    vertex 0.24999999999999956 0.7500000000000007 1.0
    vertex 0.24999999999999956 0.24999999999999986 1.0
  endloop
endfacet
facet normal 0.0 0.0 1.0
  outer loop
    vertex 0.24999999999999956 0.7500000000000007 1.0
    vertex 0.75 0.24999999999999986 1.0
    vertex 0.75 0.7500000000000007 1.0
  endloop
endfacet
facet normal 0.0 -1.0 0.0
  outer loop
    vertex 1.0 5.414335646491963e-16 0.75
    vertex 0.75 5.414335646491963e-16 0.24999999999999994
    vertex 1.0 5.414335646491963e-16 0.24999999999999994
  endloop
endfacet
facet normal 0.0 -1.0 0.0
  outer loop
    vertex 0.75 5.414335646491963e-16 0.24999999999999994
    vertex 1.0 5.414335646491963e-16 0.75
    vertex 0.0 5.414335646491963e-16 0.24999999999999994
  endloop
endfacet
facet normal 0.0 -1.0 0.0
  outer loop
    vertex 0.0 5.414335646491963e-16 0.24999999999999994
    vertex 1.0 5.414335646491963e-16 0.75
    vertex 0.0 5.414335646491963e-16 0.75
  endloop
endfacet
facet normal -1.0 0.0 0.0
  outer loop
    vertex 0.0 1.0000000000000004 0.75
    vertex 0.0 5.414335646491963e-16 0.24999999999999994
    vertex 0.0 5.414335646491963e-16 0.75
  endloop
endfacet
facet normal -1.0 0.0 0.0
  outer loop
    vertex 0.0 5.414335646491963e-16 0.24999999999999994
    vertex 0.0 1.0000000000000004 0.75
    vertex 0.0 1.0000000000000004 0.24999999999999994
  endloop
endfacet
facet normal -6.535218224017565e-18 -0.7071067811865476 -0.7071067811865476
  outer loop
    vertex 1.0 5.414335646491963e-16 0.24999999999999994
    vertex 0.24999999999999978 0.25000000000000056 0.0
    vertex 0.75 0.25000000000000056 0.0
  endloop
endfacet
facet normal -6.535218224017565e-18 -0.7071067811865476 -0.7071067811865476
  outer loop
    vertex 0.24999999999999978 0.25000000000000056 0.0
    vertex 1.0 5.414335646491963e-16 0.24999999999999994
    vertex 0.0 5.414335646491963e-16 0.24999999999999994
  endloop
endfacet
facet normal -6.535218224017565e-18 -0.7071067811865476 -0.7071067811865476
  outer loop
    vertex 0.0 5.414335646491963e-16 0.24999999999999994
    vertex 1.0 5.414335646491963e-16 0.24999999999999994
    vertex 0.75 5.414335646491963e-16 0.24999999999999994
  endloop
endfacet
facet normal 0.0 1.0 0.0
  outer loop
    vertex 0.0 1.0000000000000004 0.75
    vertex 1.0 1.0000000000000004 0.24999999999999994
    vertex 0.0 1.0000000000000004 0.24999999999999994
  endloop
endfacet
facet normal 0.0 1.0 0.0
  outer loop
    vertex 1.0 1.0000000000000004 0.24999999999999994
    vertex 0.0 1.0000000000000004 0.75
    vertex 1.0 1.0000000000000004 0.75
  endloop
endfacet
facet normal 0.0 0.0 -1.0
  outer loop
    vertex 0.7500000000000007 0.750000000000001 0.0
    vertex 0.24999999999999978 0.25000000000000056 0.0
    vertex 0.24999999999999978 0.750000000000001 0.0
  endloop
endfacet
facet normal 0.0 0.0 -1.0
  outer loop
    vertex 0.24999999999999978 0.25000000000000056 0.0
    vertex 0.7500000000000007 0.750000000000001 0.0
    vertex 0.75 0.25000000000000056 0.0
  endloop
endfacet
facet normal 0.0 0.0 -1.0
  outer loop
    vertex 1.0 1.0000000000000004 0.24999999999999994
    vertex 0.0 5.414335646491963e-16 0.24999999999999994
    vertex 0.0 1.0000000000000004 0.24999999999999994
  endloop
endfacet
facet normal 0.0 0.0 -1.0
  outer loop
    vertex 0.0 5.414335646491963e-16 0.24999999999999994
    vertex 1.0 1.0000000000000004 0.24999999999999994
    vertex 0.75 5.414335646491963e-16 0.24999999999999994
  endloop
endfacet
facet normal 0.0 0.0 -1.0
  outer loop
    vertex 0.75 5.414335646491963e-16 0.24999999999999994
    vertex 1.0 1.0000000000000004 0.24999999999999994
    vertex 1.0 5.414335646491963e-16 0.24999999999999994
  endloop
endfacet
facet normal 1.0 0.0 0.0
  outer loop
    vertex 1.0 1.0000000000000004 0.24999999999999994
    vertex 1.0 5.414335646491963e-16 0.75
    vertex 1.0 5.414335646491963e-16 0.24999999999999994
  endloop
endfacet
facet normal 1.0 0.0 0.0
  outer loop
    vertex 1.0 5.414335646491963e-16 0.75
    vertex 1.0 1.0000000000000004 0.24999999999999994
    vertex 1.0 1.0000000000000004 0.75
  endloop
endfacet
endsolid testobj
