solid Untitled-570580a4
facet normal 0.7071067811865476 0.0 0.7071067811865476
  outer loop
    vertex 1.0 1.0 0.75
    vertex 0.75 0.24999999999999944 1.0
    vertex 1.0 0.0 0.75
  endloop
endfacet
facet normal 0.7071067811865476 0.0 0.7071067811865476
  outer loop
    vertex 0.75 0.24999999999999944 1.0
    vertex 1.0 1.0 0.75
    vertex 0.75 0.7500000000000002 1.0
  endloop
endfacet
facet normal 0.0 0.7071067811865478 0.7071067811865472
  outer loop
    vertex 0.24999999999999964 0.7500000000000002 1.0
    vertex 1.0 1.0 0.75
    vertex 0.0 1.0 0.75
  endloop
endfacet
facet normal 0.0 0.7071067811865478 0.7071067811865472
  outer loop
    vertex 1.0 1.0 0.75
    vertex 0.24999999999999964 0.7500000000000002 1.0
    vertex 0.75 0.7500000000000002 1.0
  endloop
endfacet
facet normal -0.707106781186548 0.0 0.7071067811865471
  outer loop
    vertex 0.24999999999999964 0.24999999999999944 1.0
    vertex 0.0 1.0 0.75
    vertex 0.0 0.0 0.75
  endloop
endfacet
facet normal -0.707106781186548 0.0 0.7071067811865471
  outer loop
    vertex 0.0 1.0 0.75
    vertex 0.24999999999999964 0.24999999999999944 1.0
    vertex 0.24999999999999964 0.7500000000000002 1.0
  endloop
endfacet
facet normal 1.606095230734559e-17 -0.7071067811865483 0.7071067811865468
  outer loop
    vertex 0.75 0.24999999999999944 1.0
    vertex 0.0 0.0 0.75
    vertex 1.0 0.0 0.75
  endloop
endfacet
facet normal 1.606095230734559e-17 -0.7071067811865483 0.7071067811865468
  outer loop
    vertex 0.0 0.0 0.75
    vertex 0.75 0.24999999999999944 1.0
    vertex 0.24999999999999964 0.24999999999999944 1.0
  endloop
endfacet
facet normal 0.0 0.0 1.0
  outer loop
    vertex 0.75 0.24999999999999944 1.0
    vertex 0.24999999999999964 0.7500000000000002 1.0
    vertex 0.24999999999999964 0.24999999999999944 1.0
  endloop
endfacet
facet normal 0.0 0.0 1.0
  outer loop
    vertex 0.24999999999999964 0.7500000000000002 1.0
    vertex 0.75 0.24999999999999944 1.0
    vertex 0.75 0.7500000000000002 1.0
  endloop
endfacet
facet normal 0.0 0.0 1.0
  outer loop
    vertex 1.0 0.0 0.75
    vertex 0.0 1.0 0.75
    vertex 0.0 0.0 0.75
  endloop
endfacet
facet normal 0.0 0.0 1.0
  outer loop
    vertex 0.0 1.0 0.75
    vertex 1.0 0.0 0.75
    vertex 1.0 1.0 0.75
  endloop
endfacet
facet normal -0.7071067811865478 -0.0 -0.7071067811865472
  outer loop
    vertex 0.0 1.0 0.25
    vertex 0.2499999999999998 0.25 0.0
    vertex 0.0 0.0 0.25
  endloop
endfacet
facet normal -0.7071067811865478 -0.0 -0.7071067811865472
  outer loop
    vertex 0.2499999999999998 0.25 0.0
    vertex 0.0 1.0 0.25
    vertex 0.2499999999999998 0.7500000000000003 0.0
  endloop
endfacet
facet normal 0.0 0.707106781186548 -0.7071067811865471
  outer loop
    vertex 0.0 1.0 0.25
    vertex 0.7500000000000006 0.7500000000000003 0.0
    vertex 0.2499999999999998 0.7500000000000003 0.0
  endloop
endfacet
facet normal 0.0 0.707106781186548 -0.7071067811865471
  outer loop
    vertex 0.7500000000000006 0.7500000000000003 0.0
    vertex 0.0 1.0 0.25
    vertex 1.0 1.0 0.25
  endloop
endfacet
facet normal 0.7071067811865483 0.0 -0.7071067811865468
  outer loop
    vertex 0.7500000000000006 0.24999999999999992 0.0
    vertex 1.0 1.0 0.25
    vertex 1.0 0.0 0.25
  endloop
endfacet
facet normal 0.7071067811865483 0.0 -0.7071067811865468
  outer loop
    vertex 1.0 1.0 0.25
    vertex 0.7500000000000006 0.24999999999999992 0.0
    vertex 0.7500000000000006 0.7500000000000003 0.0
  endloop
endfacet
facet normal 0.0 0.0 -1.0
  outer loop
    vertex 0.7500000000000006 0.7500000000000003 0.0
    vertex 0.2499999999999998 0.25 0.0
    vertex 0.2499999999999998 0.7500000000000003 0.0
  endloop
endfacet
facet normal 0.0 0.0 -1.0
  outer loop
    vertex 0.2499999999999998 0.25 0.0
    vertex 0.7500000000000006 0.7500000000000003 0.0
    vertex 0.7500000000000006 0.24999999999999992 0.0
  endloop
endfacet
facet normal 1.0 0.0 0.0
  outer loop
    vertex 1.0 1.0 0.25
    vertex 1.0 0.0 0.75
    vertex 1.0 0.0 0.25
  endloop
endfacet
facet normal 1.0 0.0 0.0
  outer loop
    vertex 1.0 0.0 0.75
    vertex 1.0 1.0 0.25
    vertex 1.0 1.0 0.75
  endloop
endfacet
facet normal 0.0 -1.0 0.0
  outer loop
    vertex 1.0 0.0 0.75
    vertex 0.0 0.0 0.25
    vertex 1.0 0.0 0.25
  endloop
endfacet
facet normal 0.0 -1.0 0.0
  outer loop
    vertex 0.0 0.0 0.25
    vertex 1.0 0.0 0.75
    vertex 0.0 0.0 0.75
  endloop
endfacet
facet normal 0.0 1.0 0.0
  outer loop
    vertex 0.0 1.0 0.75
    vertex 1.0 1.0 0.25
    vertex 0.0 1.0 0.25
  endloop
endfacet
facet normal 0.0 1.0 0.0
  outer loop
    vertex 1.0 1.0 0.25
    vertex 0.0 1.0 0.75
    vertex 1.0 1.0 0.75
  endloop
endfacet
facet normal -1.0 0.0 0.0
  outer loop
    vertex 0.0 1.0 0.75
    vertex 0.0 0.0 0.25
    vertex 0.0 0.0 0.75
  endloop
endfacet
facet normal -1.0 0.0 0.0
  outer loop
    vertex 0.0 0.0 0.25
    vertex 0.0 1.0 0.75
    vertex 0.0 1.0 0.25
  endloop
endfacet
facet normal 0.0 0.0 -1.0
  outer loop
    vertex 1.0 1.0 0.25
    vertex 0.0 0.0 0.25
    vertex 0.0 1.0 0.25
  endloop
endfacet
facet normal 0.0 0.0 -1.0
  outer loop
    vertex 0.0 0.0 0.25
    vertex 1.0 1.0 0.25
    vertex 1.0 0.0 0.25
  endloop
endfacet
facet normal -1.0372719110598894e-17 -0.7071067811865476 -0.7071067811865475
  outer loop
    vertex 1.0 0.0 0.25
    vertex 0.2499999999999998 0.25 0.0
    vertex 0.7500000000000006 0.24999999999999992 0.0
  endloop
endfacet
facet normal -1.0372719110598894e-17 -0.7071067811865476 -0.7071067811865475
  outer loop
    vertex 0.2499999999999998 0.25 0.0
    vertex 1.0 0.0 0.25
    vertex 0.0 0.0 0.25
  endloop
endfacet
endsolid Untitled-570580a4
